# xmcd
#
# Track frame offsets:
#	150
#	24198
#	38368
#	51276
#	64863
#	77617
#	86866
#	102667
#	113157
#	127543
#	140968
#	155729
#	166431
#	180066
#	193654
#	204293
#	216337
#	229113
#
# Disc length: 3233
#
# Revision: 1
# Processed by: cddbd v1.5.1PL0 Copyright (c) Steve Scherf et al.
# Submitted via: CDex 1.51
# Normalized: r0:DSETVAR1,TDELIM( - )
#
DISCID=ef0c9f12
DTITLE=Various Artist - Blues Classics
DYEAR=1900
DGENRE=Blues
TTITLE0=Up Wilson With Paul Orta and The Kingpins - Baby What You Want Me
TTITLE1=Ma Rainey - C.C. Rider Blues
TTITLE2=Sonny Terry - Harmonica And Wahboard Blues
TTITLE3=Memphis Minnie - I'm A Bad Luck Woman
TTITLE4=Robert Johnson - When You Got A Friend
TTITLE5=Sister Rosetta Tharpe - That's All
TTITLE6=Buddy Reed - Rialto Rock
TTITLE7=Robert Johnson - Milkcow's Calf Blues
TTITLE8=Charles Brown - Driftin Blues
TTITLE9=Robert Johnson - Terraplane Blues
TTITLE10=Greg 'Fingers' Taylor With Anson Funderburgh and The Rockets - Soul Survivor
TTITLE11=Robert Johnson - From 4 Till Late
TTITLE12=Rosetta Howard - Rosetta Blues
TTITLE13=Sleep John Estes - Working Man Blues
TTITLE14=Billie Holliday - How Long Daddy
TTITLE15=Big Joe Turner - Rebecca
TTITLE16=Big Bill Broonzy - You Know I Got A Reason
TTITLE17=Sonny Boy Williamson - Sugar Mama Blues
EXTD=
EXTT0=
EXTT1=
EXTT2=
EXTT3=
EXTT4=
EXTT5=
EXTT6=
EXTT7=
EXTT8=
EXTT9=
EXTT10=
EXTT11=
EXTT12=
EXTT13=
EXTT14=
EXTT15=
EXTT16=
EXTT17=
PLAYORDER=
